#define ico_refrapy_width 151
#define ico_refrapy_height 50
static char ico_refrapy_bits[] = {
  0x00, 0x00, 0x00, 0x00, 0x00, 0x00, 0x00, 0x00, 0x00, 0x00, 0x00, 0x00, 
  0x00, 0x00, 0x00, 0x00, 0x00, 0x00, 0x00, 0x00, 0x00, 0x00, 0x00, 0x00, 
  0x00, 0x00, 0x00, 0x00, 0x00, 0x00, 0x00, 0x00, 0x00, 0x00, 0x00, 0x00, 
  0x00, 0x00, 0x00, 0x00, 0x00, 0x00, 0x00, 0x00, 0x00, 0x00, 0x00, 0x00, 
  0x00, 0x00, 0x00, 0x00, 0x00, 0x00, 0x00, 0x00, 0x00, 0x00, 0x00, 0x00, 
  0x00, 0x00, 0x00, 0x00, 0x00, 0x00, 0x00, 0x00, 0x00, 0x00, 0x00, 0x00, 
  0x00, 0x00, 0x00, 0x00, 0x00, 0x00, 0x00, 0x00, 0x00, 0x00, 0x00, 0x00, 
  0x00, 0x00, 0x00, 0x00, 0x00, 0x00, 0x00, 0x00, 0x00, 0x00, 0x00, 0x00, 
  0x00, 0x00, 0x00, 0x00, 0x00, 0x00, 0x00, 0x00, 0x00, 0x00, 0x00, 0x00, 
  0x00, 0x00, 0x00, 0x00, 0x00, 0x00, 0x00, 0x00, 0x00, 0x00, 0x00, 0x00, 
  0x00, 0x00, 0x00, 0x00, 0x00, 0x00, 0x00, 0x00, 0x00, 0x00, 0x00, 0x00, 
  0x00, 0x00, 0x00, 0x00, 0x00, 0x00, 0x00, 0x00, 0x00, 0x00, 0x00, 0x00, 
  0x00, 0x00, 0x00, 0x00, 0x00, 0x00, 0x00, 0x00, 0x00, 0x00, 0x00, 0x00, 
  0x00, 0x00, 0x00, 0x00, 0x00, 0x00, 0x00, 0x00, 0x00, 0x00, 0x00, 0x00, 
  0x00, 0x00, 0x00, 0x00, 0x00, 0x00, 0x80, 0x10, 0x00, 0x00, 0x00, 0x00, 
  0x00, 0x00, 0x00, 0x00, 0x00, 0x00, 0x00, 0x00, 0x00, 0x00, 0x00, 0x00, 
  0xF0, 0xE7, 0xBE, 0x9D, 0xB7, 0x02, 0x00, 0x00, 0x00, 0x00, 0x00, 0x00, 
  0x00, 0x00, 0x00, 0x00, 0x00, 0x00, 0x00, 0xE0, 0xFF, 0xFF, 0xFF, 0xFF, 
  0x07, 0x00, 0x00, 0x00, 0x00, 0x00, 0x00, 0x00, 0x00, 0x00, 0x00, 0x00, 
  0x00, 0x00, 0xE0, 0xF7, 0xBE, 0xFF, 0xEF, 0x03, 0x00, 0x00, 0x00, 0x00, 
  0x00, 0x00, 0x00, 0x00, 0x00, 0x00, 0x00, 0x00, 0x00, 0xF0, 0xFF, 0xFF, 
  0xFF, 0xFF, 0x07, 0x00, 0x00, 0x00, 0x00, 0x00, 0x00, 0x00, 0x00, 0x00, 
  0x00, 0x00, 0x00, 0x00, 0xE0, 0xFF, 0xFF, 0xEF, 0x7E, 0x03, 0x00, 0x00, 
  0x00, 0x00, 0x00, 0x00, 0x00, 0x00, 0x00, 0x00, 0x00, 0x00, 0x00, 0xE0, 
  0xFF, 0xFF, 0xFF, 0xFF, 0x07, 0x00, 0x00, 0x00, 0x00, 0x00, 0x00, 0x00, 
  0x00, 0x00, 0x00, 0x00, 0xA8, 0x99, 0xF0, 0xFF, 0xFF, 0xFF, 0xFD, 0x07, 
  0x00, 0x00, 0x00, 0x10, 0x18, 0x00, 0x00, 0x00, 0x00, 0x00, 0x00, 0xD8, 
  0x6E, 0xE3, 0xFF, 0xFF, 0xFF, 0xEF, 0x07, 0x00, 0x00, 0x00, 0xEC, 0xEF, 
  0x01, 0x00, 0x00, 0x00, 0x00, 0x00, 0xE4, 0xBF, 0xF2, 0xFF, 0xFF, 0xFF, 
  0xFF, 0x06, 0x00, 0x00, 0x00, 0xFC, 0x7F, 0x01, 0x00, 0x00, 0x00, 0x00, 
  0x00, 0x60, 0x6A, 0xE6, 0x00, 0x78, 0x00, 0x78, 0x10, 0x04, 0xA0, 0x00, 
  0x20, 0x80, 0x91, 0x80, 0x06, 0x00, 0x00, 0x00, 0x20, 0x80, 0x66, 0xFC, 
  0x7F, 0xF8, 0x7B, 0xFE, 0x01, 0x00, 0x00, 0x20, 0x00, 0x22, 0x00, 0x03, 
  0x00, 0x00, 0x00, 0x60, 0x00, 0x70, 0xFE, 0xFF, 0xFC, 0x3F, 0x06, 0x08, 
  0x60, 0x00, 0x00, 0x00, 0x02, 0x80, 0x01, 0x00, 0x00, 0x00, 0x40, 0x00, 
  0x62, 0xFE, 0xFF, 0xFC, 0x7F, 0x02, 0x08, 0x30, 0x00, 0x04, 0x00, 0x00, 
  0xC0, 0x00, 0x00, 0x00, 0x00, 0x00, 0x00, 0x76, 0x90, 0x7F, 0x7C, 0x7F, 
  0x02, 0x08, 0x10, 0x00, 0x00, 0x00, 0x03, 0x61, 0x00, 0x04, 0x00, 0x00, 
  0xC0, 0xE0, 0x73, 0x80, 0xFF, 0x80, 0x77, 0x00, 0x08, 0x08, 0x00, 0xE0, 
  0xFF, 0x01, 0x30, 0x00, 0x06, 0x00, 0x00, 0x60, 0xE3, 0x71, 0xFC, 0xEF, 
  0xA8, 0x3F, 0x0E, 0x0D, 0x08, 0x01, 0x20, 0x00, 0x00, 0x10, 0x00, 0x0F, 
  0x00, 0x00, 0x60, 0x0C, 0x60, 0xFE, 0x7F, 0xFC, 0x7F, 0x9E, 0x03, 0x00, 
  0x08, 0x14, 0x00, 0x00, 0x08, 0x00, 0x09, 0x00, 0x00, 0x28, 0x50, 0x70, 
  0xFE, 0xFF, 0xFE, 0x7F, 0x46, 0x80, 0xFE, 0x07, 0x24, 0x00, 0x00, 0x10, 
  0x00, 0x09, 0x10, 0x00, 0x68, 0x70, 0x71, 0x18, 0xF9, 0xFC, 0x7F, 0x87, 
  0x01, 0x87, 0x14, 0x14, 0x00, 0x00, 0x1C, 0x81, 0x19, 0x30, 0x00, 0x38, 
  0xC0, 0xE7, 0xFF, 0xFF, 0xEF, 0xBF, 0x87, 0xCF, 0x03, 0x3C, 0x3C, 0x00, 
  0x00, 0x9C, 0x83, 0x10, 0x10, 0x00, 0x38, 0x80, 0xF7, 0xFF, 0xFF, 0xFF, 
  0xFF, 0x07, 0x9E, 0x01, 0x30, 0x18, 0x00, 0x00, 0x88, 0xC6, 0x10, 0x90, 
  0x0F, 0xB0, 0x95, 0xFA, 0xFF, 0xFF, 0xFF, 0xFF, 0x8F, 0x52, 0x00, 0x00, 
  0x00, 0x00, 0x00, 0xE0, 0xC4, 0x30, 0xF0, 0x1F, 0xFE, 0xFF, 0xFF, 0xFF, 
  0xFF, 0xFF, 0xFF, 0xFF, 0xFF, 0xFF, 0xFF, 0xFF, 0xFF, 0xFF, 0x7F, 0x6C, 
  0x20, 0xF0, 0x07, 0x80, 0x61, 0xF0, 0xFF, 0xFF, 0xFF, 0xFF, 0x07, 0x00, 
  0x00, 0x00, 0x00, 0x00, 0x00, 0x00, 0x68, 0x60, 0x38, 0x02, 0x00, 0x00, 
  0xF0, 0xDF, 0xFF, 0xFF, 0xFF, 0x07, 0x00, 0x00, 0x00, 0x00, 0x00, 0x00, 
  0x00, 0x38, 0x60, 0x38, 0x00, 0x00, 0x00, 0xE0, 0xFF, 0xFF, 0xFF, 0xFE, 
  0x03, 0x00, 0x00, 0x00, 0x00, 0x00, 0x00, 0x00, 0x30, 0x40, 0x3C, 0x00, 
  0x00, 0x00, 0xE0, 0xFF, 0xFF, 0xF7, 0xFE, 0x03, 0x00, 0x00, 0x00, 0x00, 
  0x00, 0x00, 0x00, 0x00, 0xC0, 0x3C, 0x00, 0x00, 0x00, 0xE0, 0xFF, 0xFF, 
  0xFF, 0xFF, 0x03, 0x00, 0x00, 0x00, 0x00, 0x00, 0x00, 0x00, 0x00, 0xC0, 
  0x3C, 0x00, 0x00, 0x00, 0xF0, 0xFF, 0xFF, 0x7F, 0x7F, 0x01, 0x00, 0x00, 
  0x00, 0x00, 0x00, 0x00, 0x00, 0x00, 0x80, 0x16, 0x00, 0x00, 0x00, 0xE0, 
  0xDF, 0xDF, 0xFF, 0xEF, 0x07, 0x00, 0x00, 0x00, 0x00, 0x00, 0x00, 0x00, 
  0x00, 0x80, 0x03, 0x00, 0x00, 0x00, 0xF0, 0xFF, 0xFF, 0xFF, 0xFB, 0x07, 
  0x00, 0x00, 0x00, 0x00, 0x00, 0x00, 0x00, 0x00, 0x00, 0x03, 0x00, 0x00, 
  0x00, 0xE0, 0xFF, 0xFF, 0xEF, 0xFF, 0x07, 0x00, 0x00, 0x00, 0x00, 0x00, 
  0x00, 0x00, 0x00, 0x00, 0x00, 0x00, 0x00, 0x00, 0xE0, 0xEF, 0xDF, 0xDF, 
  0xB7, 0x02, 0x00, 0x00, 0x00, 0x00, 0x00, 0x00, 0x00, 0x00, 0x00, 0x00, 
  0x00, 0x00, 0x00, 0xE0, 0xFE, 0xFF, 0xFD, 0xFF, 0x07, 0x00, 0x00, 0x00, 
  0x00, 0x00, 0x00, 0x00, 0x00, 0x00, 0x00, 0x00, 0x00, 0x00, 0xE0, 0xEF, 
  0xDE, 0xFF, 0xEF, 0x03, 0x00, 0x00, 0x00, 0x00, 0x00, 0x00, 0x00, 0x00, 
  0x00, 0x00, 0x00, 0x00, 0x00, 0xA0, 0xFF, 0xFF, 0xF7, 0xFF, 0x07, 0x00, 
  0x00, 0x00, 0x00, 0x00, 0x00, 0x00, 0x00, 0x00, 0x00, 0x00, 0x00, 0x00, 
  0xE0, 0xFF, 0xFF, 0xFF, 0xFF, 0x07, 0x00, 0x00, 0x00, 0x00, 0x00, 0x00, 
  0x00, 0x00, 0x00, 0x00, 0x00, 0x00, 0x00, 0xE0, 0xF7, 0xFB, 0x7E, 0xFD, 
  0x06, 0x00, 0x00, 0x00, 0x00, 0x00, 0x00, 0x00, 0x00, 0x00, 0x00, 0x00, 
  0x00, 0x00, 0x00, 0x00, 0x00, 0x00, 0x00, 0x00, 0x00, 0x00, 0x00, 0x00, 
  0x00, 0x00, 0x00, 0x00, 0x00, 0x00, 0x00, 0x00, 0x00, 0x00, 0x00, 0x00, 
  0x00, 0x00, 0x00, 0x00, 0x00, 0x00, 0x00, 0x00, 0x00, 0x00, 0x00, 0x00, 
  0x00, 0x00, };
